<?xml version="1.0" encoding="UTF-8" standalone="no"?>
<!DOCTYPE svg PUBLIC "-//W3C//DTD SVG 1.1//EN"
 "http://www.w3.org/Graphics/SVG/1.1/DTD/svg11.dtd">
<!-- Generated by graphviz version 2.40.1 (20161225.0304)
 -->
<!-- Title: G Pages: 1 -->
<svg width="719pt" height="488pt"
 viewBox="0.00 0.00 719.27 488.00" xmlns="http://www.w3.org/2000/svg" xmlns:xlink="http://www.w3.org/1999/xlink">
<g id="graph0" class="graph" transform="scale(1 1) rotate(0) translate(4 484)">
<title>G</title>
<polygon fill="#ffffff" stroke="transparent" points="-4,4 -4,-484 715.2748,-484 715.2748,4 -4,4"/>
<!-- Node0 -->
<g id="node1" class="node">
<title>Node0</title>
<ellipse fill="none" stroke="#000000" cx="311.1386" cy="-462" rx="42.2777" ry="18"/>
<text text-anchor="middle" x="311.1386" y="-457.8" font-family="Times,serif" font-size="14.00" fill="#000000">green, 0</text>
</g>
<!-- Node1 -->
<g id="node2" class="node">
<title>Node1</title>
<ellipse fill="none" stroke="#000000" cx="232.1386" cy="-373.2" rx="41.7308" ry="18"/>
<text text-anchor="middle" x="232.1386" y="-369" font-family="Times,serif" font-size="14.00" fill="#000000">small, 1</text>
</g>
<!-- Node0&#45;&gt;Node1 -->
<g id="edge2" class="edge">
<title>Node0&#45;&gt;Node1</title>
<path fill="none" stroke="#000000" d="M295.9066,-444.8785C284.1033,-431.611 267.5798,-413.0377 254.3104,-398.1222"/>
<polygon fill="#000000" stroke="#000000" points="256.5856,-395.4139 247.3239,-390.269 251.3557,-400.0667 256.5856,-395.4139"/>
<text text-anchor="middle" x="290.0215" y="-413.4" font-family="Times,serif" font-size="14.00" fill="#000000">Yes</text>
</g>
<!-- Node6 -->
<g id="node7" class="node">
<title>Node6</title>
<ellipse fill="none" stroke="#000000" cx="392.1386" cy="-373.2" rx="46.9516" ry="18"/>
<text text-anchor="middle" x="392.1386" y="-369" font-family="Times,serif" font-size="14.00" fill="#000000">yellow, 6</text>
</g>
<!-- Node0&#45;&gt;Node6 -->
<g id="edge1" class="edge">
<title>Node0&#45;&gt;Node6</title>
<path fill="none" stroke="#000000" d="M326.7562,-444.8785C338.9704,-431.4881 356.1143,-412.6933 369.7826,-397.7088"/>
<polygon fill="#000000" stroke="#000000" points="372.4156,-400.0158 376.569,-390.269 367.2439,-395.2984 372.4156,-400.0158"/>
<text text-anchor="middle" x="367.6919" y="-413.4" font-family="Times,serif" font-size="14.00" fill="#000000">No</text>
</g>
<!-- Node2 -->
<g id="node3" class="node">
<title>Node2</title>
<ellipse fill="none" stroke="#000000" cx="105.1386" cy="-284.4" rx="41.1335" ry="18"/>
<text text-anchor="middle" x="105.1386" y="-280.2" font-family="Times,serif" font-size="14.00" fill="#000000">berry, 2</text>
</g>
<!-- Node1&#45;&gt;Node2 -->
<g id="edge4" class="edge">
<title>Node1&#45;&gt;Node2</title>
<path fill="none" stroke="#000000" d="M210.0169,-357.7322C189.3475,-343.2799 158.3181,-321.5837 135.3685,-305.5371"/>
<polygon fill="#000000" stroke="#000000" points="137.2078,-302.5525 127.0068,-299.6905 133.1966,-308.2892 137.2078,-302.5525"/>
<text text-anchor="middle" x="191.0215" y="-324.6" font-family="Times,serif" font-size="14.00" fill="#000000">Yes</text>
</g>
<!-- Node5 -->
<g id="node6" class="node">
<title>Node5</title>
<ellipse fill="none" stroke="#000000" cx="232.1386" cy="-284.4" rx="68.3401" ry="18"/>
<text text-anchor="middle" x="232.1386" y="-280.2" font-family="Times,serif" font-size="14.00" fill="#000000">Watermelon, 5</text>
</g>
<!-- Node1&#45;&gt;Node5 -->
<g id="edge3" class="edge">
<title>Node1&#45;&gt;Node5</title>
<path fill="none" stroke="#000000" d="M232.1386,-354.8006C232.1386,-342.6949 232.1386,-326.6076 232.1386,-312.8674"/>
<polygon fill="#000000" stroke="#000000" points="235.6387,-312.472 232.1386,-302.472 228.6387,-312.4721 235.6387,-312.472"/>
<text text-anchor="middle" x="240.6919" y="-324.6" font-family="Times,serif" font-size="14.00" fill="#000000">No</text>
</g>
<!-- Node3 -->
<g id="node4" class="node">
<title>Node3</title>
<ellipse fill="none" stroke="#000000" cx="42.1386" cy="-195.6" rx="42.2777" ry="18"/>
<text text-anchor="middle" x="42.1386" y="-191.4" font-family="Times,serif" font-size="14.00" fill="#000000">grape, 3</text>
</g>
<!-- Node2&#45;&gt;Node3 -->
<g id="edge6" class="edge">
<title>Node2&#45;&gt;Node3</title>
<path fill="none" stroke="#000000" d="M92.6919,-266.856C83.4591,-253.8422 70.7284,-235.8979 60.3524,-221.2727"/>
<polygon fill="#000000" stroke="#000000" points="63.2005,-219.2383 54.5595,-213.1076 57.4913,-223.2887 63.2005,-219.2383"/>
<text text-anchor="middle" x="91.0215" y="-235.8" font-family="Times,serif" font-size="14.00" fill="#000000">Yes</text>
</g>
<!-- Node4 -->
<g id="node5" class="node">
<title>Node4</title>
<ellipse fill="none" stroke="#000000" cx="144.1386" cy="-195.6" rx="41.7153" ry="18"/>
<text text-anchor="middle" x="144.1386" y="-191.4" font-family="Times,serif" font-size="14.00" fill="#000000">apple, 4</text>
</g>
<!-- Node2&#45;&gt;Node4 -->
<g id="edge5" class="edge">
<title>Node2&#45;&gt;Node4</title>
<path fill="none" stroke="#000000" d="M113.0309,-266.43C118.5285,-253.9123 125.9615,-236.9879 132.1831,-222.8218"/>
<polygon fill="#000000" stroke="#000000" points="135.4415,-224.1066 136.2581,-213.5433 129.0323,-221.2917 135.4415,-224.1066"/>
<text text-anchor="middle" x="136.6919" y="-235.8" font-family="Times,serif" font-size="14.00" fill="#000000">No</text>
</g>
<!-- Node7 -->
<g id="node8" class="node">
<title>Node7</title>
<ellipse fill="none" stroke="#000000" cx="392.1386" cy="-284.4" rx="73.0036" ry="18"/>
<text text-anchor="middle" x="392.1386" y="-280.2" font-family="Times,serif" font-size="14.00" fill="#000000">round&#45;shaped, 7</text>
</g>
<!-- Node6&#45;&gt;Node7 -->
<g id="edge8" class="edge">
<title>Node6&#45;&gt;Node7</title>
<path fill="none" stroke="#000000" d="M392.1386,-354.8006C392.1386,-342.6949 392.1386,-326.6076 392.1386,-312.8674"/>
<polygon fill="#000000" stroke="#000000" points="395.6387,-312.472 392.1386,-302.472 388.6387,-312.4721 395.6387,-312.472"/>
<text text-anchor="middle" x="403.0215" y="-324.6" font-family="Times,serif" font-size="14.00" fill="#000000">Yes</text>
</g>
<!-- Node12 -->
<g id="node13" class="node">
<title>Node12</title>
<ellipse fill="none" stroke="#000000" cx="521.1386" cy="-284.4" rx="37.7044" ry="18"/>
<text text-anchor="middle" x="521.1386" y="-280.2" font-family="Times,serif" font-size="14.00" fill="#000000">red, 12</text>
</g>
<!-- Node6&#45;&gt;Node12 -->
<g id="edge7" class="edge">
<title>Node6&#45;&gt;Node12</title>
<path fill="none" stroke="#000000" d="M415.2012,-357.3243C436.4074,-342.7266 467.9768,-320.9951 491.1372,-305.0521"/>
<polygon fill="#000000" stroke="#000000" points="493.3103,-307.8054 499.5628,-299.2522 489.3412,-302.0394 493.3103,-307.8054"/>
<text text-anchor="middle" x="477.6919" y="-324.6" font-family="Times,serif" font-size="14.00" fill="#000000">No</text>
</g>
<!-- Node8 -->
<g id="node9" class="node">
<title>Node8</title>
<ellipse fill="none" stroke="#000000" cx="283.1386" cy="-195.6" rx="41.7308" ry="18"/>
<text text-anchor="middle" x="283.1386" y="-191.4" font-family="Times,serif" font-size="14.00" fill="#000000">small, 8</text>
</g>
<!-- Node7&#45;&gt;Node8 -->
<g id="edge10" class="edge">
<title>Node7&#45;&gt;Node8</title>
<path fill="none" stroke="#000000" d="M370.8636,-267.0677C353.7015,-253.0861 329.4315,-233.3138 310.7684,-218.1094"/>
<polygon fill="#000000" stroke="#000000" points="312.856,-215.2957 302.8925,-211.6931 308.4348,-220.7227 312.856,-215.2957"/>
<text text-anchor="middle" x="359.0215" y="-235.8" font-family="Times,serif" font-size="14.00" fill="#000000">Yes</text>
</g>
<!-- Node11 -->
<g id="node12" class="node">
<title>Node11</title>
<ellipse fill="none" stroke="#000000" cx="397.1386" cy="-195.6" rx="54.4585" ry="18"/>
<text text-anchor="middle" x="397.1386" y="-191.4" font-family="Times,serif" font-size="14.00" fill="#000000">Banana, 11</text>
</g>
<!-- Node7&#45;&gt;Node11 -->
<g id="edge9" class="edge">
<title>Node7&#45;&gt;Node11</title>
<path fill="none" stroke="#000000" d="M393.1746,-266.0006C393.863,-253.775 394.78,-237.4887 395.5587,-223.6599"/>
<polygon fill="#000000" stroke="#000000" points="399.0533,-223.853 396.1211,-213.672 392.0643,-223.4594 399.0533,-223.853"/>
<text text-anchor="middle" x="403.6919" y="-235.8" font-family="Times,serif" font-size="14.00" fill="#000000">No</text>
</g>
<!-- Node9 -->
<g id="node10" class="node">
<title>Node9</title>
<ellipse fill="none" stroke="#000000" cx="159.1386" cy="-106.8" rx="44.6665" ry="18"/>
<text text-anchor="middle" x="159.1386" y="-102.6" font-family="Times,serif" font-size="14.00" fill="#000000">lemon, 9</text>
</g>
<!-- Node8&#45;&gt;Node9 -->
<g id="edge12" class="edge">
<title>Node8&#45;&gt;Node9</title>
<path fill="none" stroke="#000000" d="M261.5395,-180.1322C241.6044,-165.8562 211.7993,-144.5118 189.4776,-128.5266"/>
<polygon fill="#000000" stroke="#000000" points="191.4933,-125.6652 181.3252,-122.6885 187.4177,-131.3564 191.4933,-125.6652"/>
<text text-anchor="middle" x="244.0215" y="-147" font-family="Times,serif" font-size="14.00" fill="#000000">Yes</text>
</g>
<!-- Node10 -->
<g id="node11" class="node">
<title>Node10</title>
<ellipse fill="none" stroke="#000000" cx="285.1386" cy="-106.8" rx="63.6851" ry="18"/>
<text text-anchor="middle" x="285.1386" y="-102.6" font-family="Times,serif" font-size="14.00" fill="#000000">grapefruit, 10</text>
</g>
<!-- Node8&#45;&gt;Node10 -->
<g id="edge11" class="edge">
<title>Node8&#45;&gt;Node10</title>
<path fill="none" stroke="#000000" d="M283.553,-177.2006C283.8257,-165.0949 284.188,-149.0076 284.4975,-135.2674"/>
<polygon fill="#000000" stroke="#000000" points="288.0055,-134.9483 284.7316,-124.872 281.0072,-134.7906 288.0055,-134.9483"/>
<text text-anchor="middle" x="293.6919" y="-147" font-family="Times,serif" font-size="14.00" fill="#000000">No</text>
</g>
<!-- Node13 -->
<g id="node14" class="node">
<title>Node13</title>
<ellipse fill="none" stroke="#000000" cx="518.1386" cy="-195.6" rx="46.3875" ry="18"/>
<text text-anchor="middle" x="518.1386" y="-191.4" font-family="Times,serif" font-size="14.00" fill="#000000">small, 13</text>
</g>
<!-- Node12&#45;&gt;Node13 -->
<g id="edge14" class="edge">
<title>Node12&#45;&gt;Node13</title>
<path fill="none" stroke="#000000" d="M520.517,-266.0006C520.1081,-253.8949 519.5646,-237.8076 519.1004,-224.0674"/>
<polygon fill="#000000" stroke="#000000" points="522.5849,-223.5481 518.7492,-213.672 515.5889,-223.7845 522.5849,-223.5481"/>
<text text-anchor="middle" x="531.0215" y="-235.8" font-family="Times,serif" font-size="14.00" fill="#000000">Yes</text>
</g>
<!-- Node18 -->
<g id="node19" class="node">
<title>Node18</title>
<ellipse fill="none" stroke="#000000" cx="647.1386" cy="-195.6" rx="64.2727" ry="18"/>
<text text-anchor="middle" x="647.1386" y="-191.4" font-family="Times,serif" font-size="14.00" fill="#000000">undefined, 18</text>
</g>
<!-- Node12&#45;&gt;Node18 -->
<g id="edge13" class="edge">
<title>Node12&#45;&gt;Node18</title>
<path fill="none" stroke="#000000" d="M542.5128,-269.3363C562.3108,-255.3834 592.0359,-234.4343 614.7488,-218.4271"/>
<polygon fill="#000000" stroke="#000000" points="616.9173,-221.1808 623.075,-212.5591 612.8848,-215.459 616.9173,-221.1808"/>
<text text-anchor="middle" x="604.6919" y="-235.8" font-family="Times,serif" font-size="14.00" fill="#000000">No</text>
</g>
<!-- Node14 -->
<g id="node15" class="node">
<title>Node14</title>
<ellipse fill="none" stroke="#000000" cx="449.1386" cy="-106.8" rx="42.299" ry="18"/>
<text text-anchor="middle" x="449.1386" y="-102.6" font-family="Times,serif" font-size="14.00" fill="#000000">sour, 14</text>
</g>
<!-- Node13&#45;&gt;Node14 -->
<g id="edge16" class="edge">
<title>Node13&#45;&gt;Node14</title>
<path fill="none" stroke="#000000" d="M504.5064,-178.056C494.3287,-164.9577 480.2699,-146.8646 468.866,-132.1883"/>
<polygon fill="#000000" stroke="#000000" points="471.4072,-129.7543 462.5077,-124.0054 465.8797,-134.0493 471.4072,-129.7543"/>
<text text-anchor="middle" x="501.0215" y="-147" font-family="Times,serif" font-size="14.00" fill="#000000">Yes</text>
</g>
<!-- Node17 -->
<g id="node18" class="node">
<title>Node17</title>
<ellipse fill="none" stroke="#000000" cx="556.1386" cy="-106.8" rx="46.372" ry="18"/>
<text text-anchor="middle" x="556.1386" y="-102.6" font-family="Times,serif" font-size="14.00" fill="#000000">apple, 17</text>
</g>
<!-- Node13&#45;&gt;Node17 -->
<g id="edge15" class="edge">
<title>Node13&#45;&gt;Node17</title>
<path fill="none" stroke="#000000" d="M525.8285,-177.63C531.1852,-165.1123 538.4276,-148.1879 544.4897,-134.0218"/>
<polygon fill="#000000" stroke="#000000" points="547.7437,-135.3139 548.4602,-124.7433 541.3082,-132.5599 547.7437,-135.3139"/>
<text text-anchor="middle" x="549.6919" y="-147" font-family="Times,serif" font-size="14.00" fill="#000000">No</text>
</g>
<!-- Node15 -->
<g id="node16" class="node">
<title>Node15</title>
<ellipse fill="none" stroke="#000000" cx="391.1386" cy="-18" rx="46.9342" ry="18"/>
<text text-anchor="middle" x="391.1386" y="-13.8" font-family="Times,serif" font-size="14.00" fill="#000000">grape, 15</text>
</g>
<!-- Node14&#45;&gt;Node15 -->
<g id="edge18" class="edge">
<title>Node14&#45;&gt;Node15</title>
<path fill="none" stroke="#000000" d="M437.6797,-89.256C429.2592,-76.3638 417.6781,-58.6329 408.1752,-44.0837"/>
<polygon fill="#000000" stroke="#000000" points="410.9726,-41.966 402.5738,-35.5076 405.1119,-45.7939 410.9726,-41.966"/>
<text text-anchor="middle" x="437.0215" y="-58.2" font-family="Times,serif" font-size="14.00" fill="#000000">Yes</text>
</g>
<!-- Node16 -->
<g id="node17" class="node">
<title>Node16</title>
<ellipse fill="none" stroke="#000000" cx="506.1386" cy="-18" rx="50.3645" ry="18"/>
<text text-anchor="middle" x="506.1386" y="-13.8" font-family="Times,serif" font-size="14.00" fill="#000000">cherry, 16</text>
</g>
<!-- Node14&#45;&gt;Node16 -->
<g id="edge17" class="edge">
<title>Node14&#45;&gt;Node16</title>
<path fill="none" stroke="#000000" d="M460.4,-89.256C468.6216,-76.4476 479.909,-58.8629 489.2136,-44.3675"/>
<polygon fill="#000000" stroke="#000000" points="492.2491,-46.1177 494.7056,-35.8115 486.3583,-42.3364 492.2491,-46.1177"/>
<text text-anchor="middle" x="491.6919" y="-58.2" font-family="Times,serif" font-size="14.00" fill="#000000">No</text>
</g>
</g>
</svg>
